# xmcd
#
# Track frame offsets:
#  150
#  12254
#  23822
#  35660
#  46426
#  56299
#  65905
#  77582
#  87535
#  99457
#  111934
#  123388
#  134033
#  144741
#  155946
#  164749
#  175082
#  187905
#  199584
#  210977
#  222382
#  233013
#  244157
#  255013
#  264857
#  276190
#  286508
#  300003
#  312131
#  323203
#  334757
#  345823
#
# Disc length: 4775 seconds
#
# Revision: 0
# Processed by: cddbd v1.5.2PL0 Copyright (c) Steve Scherf et al.
# Submitted via: AltoMP3_Maker 3.0
#
DISCID=c112a520
DTITLE=Various Artist - MGM Hillbilly, Vol. 3
DYEAR=1900
DGENRE=
TTITLE0=Billy Jack Wills - There's Good Rockin' Tonight
TTITLE1=Sam Nichols - Sows, Cows, Plows
TTITLE2=Bob Wills - Snatchin' and Grabbin'
TTITLE3=Bud Deckelman - Fallin' Fallin' Fallin'
TTITLE4=Rusty Gabbard - (You Gotta Give) a Little More Lovin'
TTITLE5=Billy Worth - Let's Keep Steady Company
TTITLE6=Bud Hobbs - Lazy Mazy
TTITLE7=Bob Gallion - A Fool in Love
TTITLE8=Bood and Fileece Bryant - Overweight Blues
TTITLE9=Red Sovine - Billy Goat Boogie
TTITLE10=Jimmy Swan - Hey Baby Baby
TTITLE11=Roy Scott - Lucky in Kentucky
TTITLE12=Bob Jennings - That's When I Miss You Most
TTITLE13=Sheb Wooley - White Lightnin'
TTITLE14=Bud Deckelman - It's Great to Be Living
TTITLE15=Randy Atcher - Indian Rock
TTITLE16=Dave Landers - Don't Do Anything Today
TTITLE17=Joe (Cannonball) Lewis - What's the Use?
TTITLE18=The Lucky Bros. - It Ain't Quit Hurtin' Yet
TTITLE19=The Andrews Bros - Hot to Trot
TTITLE20=Paul Davis - Make a Little Time with You
TTITLE21=Bob Wills - I've Got a New Road under My Wheels
TTITLE22=Rusty Gabbard - My Next Gal
TTITLE23=Bud Deckelman - I Gotta Find a Way
TTITLE24=Tom Anderson - Everybody's Beau
TTITLE25=Vic Claiborne - Saddest Girl in Town
TTITLE26=Billy Worth - Down with the Blues
TTITLE27=Al Britt - Sweet Little Cutie
TTITLE28=Smiley and Kitty - Thunder and Lightnin'
TTITLE29=Sam Nichols - Honky Tonk Baby
TTITLE30=Joe Franklin - Hillbilly Boy
TTITLE31=Jerry Irby - 49 Women
EXTD=
EXTT0=
EXTT1=
EXTT2=
EXTT3=
EXTT4=
EXTT5=
EXTT6=
EXTT7=
EXTT8=
EXTT9=
EXTT10=
EXTT11=
EXTT12=
EXTT13=
EXTT14=
EXTT15=
EXTT16=
EXTT17=
EXTT18=
EXTT19=
EXTT20=
EXTT21=
EXTT22=
EXTT23=
EXTT24=
EXTT25=
EXTT26=
EXTT27=
EXTT28=
EXTT29=
EXTT30=
EXTT31=
PLAYORDER=
